name Walk2.mot
datacolumns 19
datarows 10
range 2.06000000 2.10500000
endheader

                time	   L_ground_force_vx	   L_ground_force_vy	   L_ground_force_vz	   L_ground_force_px	   L_ground_force_py	   L_ground_force_pz	   R_ground_force_vx	   R_ground_force_vy	   R_ground_force_vz	   R_ground_force_px	   R_ground_force_py	   R_ground_force_pz	   L_ground_torque_x	   L_ground_torque_y	   L_ground_torque_z	   R_ground_torque_x	   R_ground_torque_y	   R_ground_torque_z	
          2.06000000	          0.00006595	          0.00297842	         -0.00137493	         -0.00013837	          0.00000000	         -0.00004218	        -24.34670127	        539.57159456	        -38.93757057	          0.17712312	          0.00000000	          0.09739716	          0.00000000	          0.00011064	          0.00000000	          0.00000000	          1.52298716	          0.00000000	
          2.06500000	         -0.00210775	         -0.00455560	         -0.00105125	         -0.00009386	          0.00000000	         -0.00002939	        -22.76060971	        534.27708845	        -38.58622558	          0.17910992	          0.00000000	          0.09771373	          0.00000000	          0.00008318	          0.00000000	          0.00000000	          1.48260935	          0.00000000	
          2.07000000	         -0.00333500	         -0.00902672	         -0.00076054	         -0.00005789	          0.00000000	         -0.00001887	        -21.27006835	        529.54353933	        -38.20961130	          0.18106677	          0.00000000	          0.09797154	          0.00000000	          0.00005899	          0.00000000	          0.00000000	          1.45099939	          0.00000000	
          2.07500000	         -0.00385826	         -0.01118006	         -0.00051397	         -0.00003025	          0.00000000	         -0.00001063	        -19.85402186	        525.33532895	        -37.81109578	          0.18298715	          0.00000000	          0.09816904	          0.00000000	          0.00003882	          0.00000000	          0.00000000	          1.42871664	          0.00000000	
          2.08000000	         -0.00388867	         -0.01167675	         -0.00031519	         -0.00001013	          0.00000000	         -0.00000451	        -18.49376173	        521.61753171	        -37.39986860	          0.18486441	          0.00000000	          0.09830600	          0.00000000	          0.00002281	          0.00000000	          0.00000000	          1.41540725	          0.00000000	
          2.08500000	         -0.00360063	         -0.01107178	         -0.00016280	          0.00000358	          0.00000000	         -0.00000022	        -17.17203148	        518.35980256	        -36.98918363	          0.18669294	          0.00000000	          0.09838520	          0.00000000	          0.00001074	          0.00000000	          0.00000000	          1.41011214	          0.00000000	
          2.09000000	         -0.00313114	         -0.00980817	         -0.00005219	          0.00001208	          0.00000000	          0.00000254	        -15.87401672	        515.54100794	        -36.59406208	          0.18846895	          0.00000000	          0.09841256	          0.00000000	          0.00000215	          0.00000000	          0.00000000	          1.41121627	          0.00000000	
          2.09500000	         -0.00258244	         -0.00822214	          0.00002286	          0.00001658	          0.00000000	          0.00000412	        -14.58742794	        513.14912522	        -36.22922134	          0.19018926	          0.00000000	          0.09839519	          0.00000000	         -0.00000353	          0.00000000	          0.00000000	          1.41695744	          0.00000000	
          2.10000000	         -0.00202632	         -0.00655478	          0.00006919	          0.00001815	          0.00000000	          0.00000480	        -13.30195755	        511.18013304	        -35.90653195	          0.19185288	          0.00000000	          0.09834120	          0.00000000	         -0.00000689	          0.00000000	          0.00000000	          1.42579753	          0.00000000	
          2.10500000	         -0.00150944	         -0.00496713	          0.00009342	          0.00001773	          0.00000000	          0.00000486	        -12.00986065	        509.63884032	        -35.63324503	          0.19346194	          0.00000000	          0.09825855	          0.00000000	         -0.00000850	          0.00000000	          0.00000000	          1.43633468	          0.00000000	
